<?xml version="1.0" encoding="UTF-8" standalone="no"?>
<!DOCTYPE svg PUBLIC "-//W3C//DTD SVG 1.1//EN"
 "http://www.w3.org/Graphics/SVG/1.1/DTD/svg11.dtd">
<!-- Generated by graphviz version 6.0.2 (20221011.1828)
 -->
<!-- Pages: 1 -->
<svg width="1158pt" height="240pt"
 viewBox="0.00 0.00 1158.50 239.99" xmlns="http://www.w3.org/2000/svg" xmlns:xlink="http://www.w3.org/1999/xlink">
<g id="graph0" class="graph" transform="scale(1 1) rotate(0) translate(4 235.99)">
<polygon fill="white" stroke="none" points="-4,4 -4,-235.99 1154.5,-235.99 1154.5,4 -4,4"/>
<!-- 0 -->
<g id="node1" class="node">
<title>0</title>
<ellipse fill="none" stroke="red" cx="569" cy="-213.99" rx="27" ry="18"/>
<text text-anchor="middle" x="569" y="-210.29" font-family="Times,serif" font-size="14.00">0</text>
</g>
<!-- 1 -->
<g id="node2" class="node">
<title>1</title>
<ellipse fill="none" stroke="black" cx="22" cy="-121.49" rx="18" ry="18"/>
<ellipse fill="none" stroke="black" cx="22" cy="-121.49" rx="22" ry="22"/>
<text text-anchor="middle" x="22" y="-117.79" font-family="Times,serif" font-size="14.00">1</text>
</g>
<!-- 0&#45;&gt;1 -->
<g id="edge1" class="edge">
<title>0&#45;&gt;1</title>
<path fill="none" stroke="black" d="M541.71,-212.76C475.25,-211.75 299.93,-206.37 157,-177.99 109.44,-168.55 96.29,-166.85 53,-144.99 51.17,-144.07 49.34,-143.05 47.53,-141.96"/>
<polygon fill="black" stroke="black" points="49.02,-138.75 38.75,-136.14 45.15,-144.58 49.02,-138.75"/>
<text text-anchor="middle" x="160.5" y="-166.79" font-family="Times,serif" font-size="14.00">}</text>
</g>
<!-- 2 -->
<g id="node3" class="node">
<title>2</title>
<ellipse fill="none" stroke="black" cx="89" cy="-121.49" rx="27" ry="18"/>
<text text-anchor="middle" x="89" y="-117.79" font-family="Times,serif" font-size="14.00">2</text>
</g>
<!-- 0&#45;&gt;2 -->
<g id="edge2" class="edge">
<title>0&#45;&gt;2</title>
<path fill="none" stroke="black" d="M541.68,-212.34C482.66,-210.48 339.15,-203.48 222,-177.99 177.5,-168.31 166.14,-164.52 125,-144.99 122,-143.57 118.95,-141.95 115.95,-140.25"/>
<polygon fill="black" stroke="black" points="117.6,-137.16 107.22,-135.02 114,-143.16 117.6,-137.16"/>
<text text-anchor="middle" x="224" y="-166.79" font-family="Times,serif" font-size="14.00">|</text>
</g>
<!-- 3 -->
<g id="node4" class="node">
<title>3</title>
<ellipse fill="none" stroke="black" cx="156" cy="-121.49" rx="18" ry="18"/>
<ellipse fill="none" stroke="black" cx="156" cy="-121.49" rx="22" ry="22"/>
<text text-anchor="middle" x="156" y="-117.79" font-family="Times,serif" font-size="14.00">3</text>
</g>
<!-- 0&#45;&gt;3 -->
<g id="edge3" class="edge">
<title>0&#45;&gt;3</title>
<path fill="none" stroke="black" d="M542.19,-211.13C492.71,-207.34 383.85,-197.41 294,-177.99 245.36,-167.48 231.52,-167.24 187,-144.99 185.17,-144.08 183.33,-143.06 181.52,-141.97"/>
<polygon fill="black" stroke="black" points="183.01,-138.76 172.74,-136.17 179.15,-144.6 183.01,-138.76"/>
<text text-anchor="middle" x="298.5" y="-166.79" font-family="Times,serif" font-size="14.00">+</text>
</g>
<!-- 4 -->
<g id="node5" class="node">
<title>4</title>
<ellipse fill="none" stroke="black" cx="223" cy="-121.49" rx="27" ry="18"/>
<text text-anchor="middle" x="223" y="-117.79" font-family="Times,serif" font-size="14.00">4</text>
</g>
<!-- 0&#45;&gt;4 -->
<g id="edge4" class="edge">
<title>0&#45;&gt;4</title>
<path fill="none" stroke="black" d="M541.98,-211.15C486.48,-206.49 356.63,-191.16 259,-144.99 256,-143.58 252.95,-141.96 249.94,-140.26"/>
<polygon fill="black" stroke="black" points="251.59,-137.17 241.22,-135.03 247.99,-143.17 251.59,-137.17"/>
<text text-anchor="middle" x="351.5" y="-166.79" font-family="Times,serif" font-size="14.00">!</text>
</g>
<!-- 5 -->
<g id="node6" class="node">
<title>5</title>
<ellipse fill="none" stroke="black" cx="290" cy="-121.49" rx="18" ry="18"/>
<ellipse fill="none" stroke="black" cx="290" cy="-121.49" rx="22" ry="22"/>
<text text-anchor="middle" x="290" y="-117.79" font-family="Times,serif" font-size="14.00">5</text>
</g>
<!-- 0&#45;&gt;5 -->
<g id="edge5" class="edge">
<title>0&#45;&gt;5</title>
<path fill="none" stroke="black" d="M542.63,-209.61C495.75,-202.79 395.8,-184.52 321,-144.99 319.04,-143.96 317.07,-142.81 315.12,-141.6"/>
<polygon fill="black" stroke="black" points="317.06,-138.69 306.81,-136.02 313.16,-144.5 317.06,-138.69"/>
<text text-anchor="middle" x="402.5" y="-166.79" font-family="Times,serif" font-size="14.00">)</text>
</g>
<!-- 6 -->
<g id="node7" class="node">
<title>6</title>
<ellipse fill="none" stroke="black" cx="352" cy="-121.49" rx="18" ry="18"/>
<ellipse fill="none" stroke="black" cx="352" cy="-121.49" rx="22" ry="22"/>
<text text-anchor="middle" x="352" y="-117.79" font-family="Times,serif" font-size="14.00">6</text>
</g>
<!-- 0&#45;&gt;6 -->
<g id="edge6" class="edge">
<title>0&#45;&gt;6</title>
<path fill="none" stroke="black" d="M544.13,-206.67C507.38,-196.72 437.11,-175.38 383,-144.99 381.07,-143.91 379.11,-142.72 377.18,-141.49"/>
<polygon fill="black" stroke="black" points="379.14,-138.59 368.91,-135.85 375.2,-144.37 379.14,-138.59"/>
<text text-anchor="middle" x="456.5" y="-166.79" font-family="Times,serif" font-size="14.00">&lt;</text>
</g>
<!-- 7 -->
<g id="node8" class="node">
<title>7</title>
<ellipse fill="none" stroke="black" cx="414" cy="-121.49" rx="18" ry="18"/>
<ellipse fill="none" stroke="black" cx="414" cy="-121.49" rx="22" ry="22"/>
<text text-anchor="middle" x="414" y="-117.79" font-family="Times,serif" font-size="14.00">7</text>
</g>
<!-- 0&#45;&gt;7 -->
<g id="edge7" class="edge">
<title>0&#45;&gt;7</title>
<path fill="none" stroke="black" d="M547.91,-202.46C522.86,-189.72 480.05,-167.2 445,-144.99 443.13,-143.81 441.22,-142.55 439.31,-141.26"/>
<polygon fill="black" stroke="black" points="441.31,-138.38 431.11,-135.5 437.29,-144.11 441.31,-138.38"/>
<text text-anchor="middle" x="501" y="-166.79" font-family="Times,serif" font-size="14.00">:</text>
</g>
<!-- 8 -->
<g id="node9" class="node">
<title>8</title>
<ellipse fill="none" stroke="black" cx="476" cy="-121.49" rx="18" ry="18"/>
<ellipse fill="none" stroke="black" cx="476" cy="-121.49" rx="22" ry="22"/>
<text text-anchor="middle" x="476" y="-117.79" font-family="Times,serif" font-size="14.00">8</text>
</g>
<!-- 0&#45;&gt;8 -->
<g id="edge8" class="edge">
<title>0&#45;&gt;8</title>
<path fill="none" stroke="black" d="M554.06,-198.45C539.19,-183.98 516.16,-161.57 498.97,-144.84"/>
<polygon fill="black" stroke="black" points="501.13,-142.07 491.53,-137.6 496.25,-147.08 501.13,-142.07"/>
<text text-anchor="middle" x="533.5" y="-166.79" font-family="Times,serif" font-size="14.00">&#45;</text>
</g>
<!-- 9 -->
<g id="node10" class="node">
<title>9</title>
<ellipse fill="none" stroke="black" cx="538" cy="-121.49" rx="18" ry="18"/>
<ellipse fill="none" stroke="black" cx="538" cy="-121.49" rx="22" ry="22"/>
<text text-anchor="middle" x="538" y="-117.79" font-family="Times,serif" font-size="14.00">9</text>
</g>
<!-- 0&#45;&gt;9 -->
<g id="edge9" class="edge">
<title>0&#45;&gt;9</title>
<path fill="none" stroke="black" d="M563.31,-196.39C559.08,-184.04 553.19,-166.84 548.16,-152.15"/>
<polygon fill="black" stroke="black" points="551.39,-150.79 544.84,-142.46 544.77,-153.06 551.39,-150.79"/>
<text text-anchor="middle" x="560.5" y="-166.79" font-family="Times,serif" font-size="14.00">*</text>
</g>
<!-- 10 -->
<g id="node11" class="node">
<title>10</title>
<ellipse fill="none" stroke="black" cx="601" cy="-121.49" rx="19.5" ry="19.5"/>
<ellipse fill="none" stroke="black" cx="601" cy="-121.49" rx="23.5" ry="23.5"/>
<text text-anchor="middle" x="601" y="-117.79" font-family="Times,serif" font-size="14.00">10</text>
</g>
<!-- 0&#45;&gt;10 -->
<g id="edge10" class="edge">
<title>0&#45;&gt;10</title>
<path fill="none" stroke="black" d="M574.87,-196.39C579.12,-184.37 584.99,-167.76 590.09,-153.34"/>
<polygon fill="black" stroke="black" points="593.44,-154.38 593.47,-143.78 586.84,-152.04 593.44,-154.38"/>
<text text-anchor="middle" x="588.5" y="-166.79" font-family="Times,serif" font-size="14.00">(</text>
</g>
<!-- 11 -->
<g id="node12" class="node">
<title>11</title>
<ellipse fill="none" stroke="black" cx="666" cy="-121.49" rx="19.5" ry="19.5"/>
<ellipse fill="none" stroke="black" cx="666" cy="-121.49" rx="23.5" ry="23.5"/>
<text text-anchor="middle" x="666" y="-117.79" font-family="Times,serif" font-size="14.00">11</text>
</g>
<!-- 0&#45;&gt;11 -->
<g id="edge11" class="edge">
<title>0&#45;&gt;11</title>
<path fill="none" stroke="black" d="M584.16,-198.85C599.64,-184.41 623.9,-161.78 641.99,-144.89"/>
<polygon fill="black" stroke="black" points="644.4,-147.43 649.33,-138.05 639.63,-142.31 644.4,-147.43"/>
<text text-anchor="middle" x="625.5" y="-166.79" font-family="Times,serif" font-size="14.00">=</text>
</g>
<!-- 12 -->
<g id="node13" class="node">
<title>12</title>
<ellipse fill="none" stroke="black" cx="731" cy="-121.49" rx="19.5" ry="19.5"/>
<ellipse fill="none" stroke="black" cx="731" cy="-121.49" rx="23.5" ry="23.5"/>
<text text-anchor="middle" x="731" y="-117.79" font-family="Times,serif" font-size="14.00">12</text>
</g>
<!-- 0&#45;&gt;12 -->
<g id="edge12" class="edge">
<title>0&#45;&gt;12</title>
<path fill="none" stroke="black" d="M590.41,-202.64C616.34,-189.89 661.12,-167.19 698,-144.99 699.74,-143.95 701.51,-142.85 703.28,-141.72"/>
<polygon fill="black" stroke="black" points="705.61,-144.37 712.04,-135.96 701.77,-138.53 705.61,-144.37"/>
<text text-anchor="middle" x="668.5" y="-166.79" font-family="Times,serif" font-size="14.00">&gt;</text>
</g>
<!-- 13 -->
<g id="node14" class="node">
<title>13</title>
<ellipse fill="none" stroke="black" cx="796" cy="-121.49" rx="19.5" ry="19.5"/>
<ellipse fill="none" stroke="black" cx="796" cy="-121.49" rx="23.5" ry="23.5"/>
<text text-anchor="middle" x="796" y="-117.79" font-family="Times,serif" font-size="14.00">13</text>
</g>
<!-- 0&#45;&gt;13 -->
<g id="edge13" class="edge">
<title>0&#45;&gt;13</title>
<path fill="none" stroke="black" d="M593.83,-206.79C631.68,-196.78 705.46,-175.13 763,-144.99 764.8,-144.05 766.61,-143.03 768.42,-141.96"/>
<polygon fill="black" stroke="black" points="770.7,-144.67 777.27,-136.36 766.95,-138.75 770.7,-144.67"/>
<text text-anchor="middle" x="729.5" y="-166.79" font-family="Times,serif" font-size="14.00">%</text>
</g>
<!-- 14 -->
<g id="node15" class="node">
<title>14</title>
<ellipse fill="none" stroke="black" cx="864" cy="-121.49" rx="27" ry="18"/>
<text text-anchor="middle" x="864" y="-117.79" font-family="Times,serif" font-size="14.00">14</text>
</g>
<!-- 0&#45;&gt;14 -->
<g id="edge14" class="edge">
<title>0&#45;&gt;14</title>
<path fill="none" stroke="black" d="M595.21,-209.67C643.4,-202.81 748.38,-184.31 828,-144.99 830.97,-143.52 834.01,-141.88 837.01,-140.16"/>
<polygon fill="black" stroke="black" points="838.97,-143.06 845.72,-134.9 835.35,-137.07 838.97,-143.06"/>
<text text-anchor="middle" x="788" y="-166.79" font-family="Times,serif" font-size="14.00">&amp;</text>
</g>
<!-- 15 -->
<g id="node16" class="node">
<title>15</title>
<ellipse fill="none" stroke="black" cx="932" cy="-121.49" rx="19.5" ry="19.5"/>
<ellipse fill="none" stroke="black" cx="932" cy="-121.49" rx="23.5" ry="23.5"/>
<text text-anchor="middle" x="932" y="-117.79" font-family="Times,serif" font-size="14.00">15</text>
</g>
<!-- 0&#45;&gt;15 -->
<g id="edge15" class="edge">
<title>0&#45;&gt;15</title>
<path fill="none" stroke="black" d="M596.27,-212.09C654.9,-209.17 796.06,-196.86 900,-144.99 901.59,-144.2 903.18,-143.34 904.77,-142.42"/>
<polygon fill="black" stroke="black" points="907.06,-145.11 913.64,-136.8 903.32,-139.2 907.06,-145.11"/>
<text text-anchor="middle" x="861" y="-166.79" font-family="Times,serif" font-size="14.00">/</text>
</g>
<!-- 16 -->
<g id="node17" class="node">
<title>16</title>
<ellipse fill="none" stroke="black" cx="997" cy="-121.49" rx="19.5" ry="19.5"/>
<ellipse fill="none" stroke="black" cx="997" cy="-121.49" rx="23.5" ry="23.5"/>
<text text-anchor="middle" x="997" y="-117.79" font-family="Times,serif" font-size="14.00">16</text>
</g>
<!-- 0&#45;&gt;16 -->
<g id="edge16" class="edge">
<title>0&#45;&gt;16</title>
<path fill="none" stroke="black" d="M596.03,-211.73C648.74,-208.85 768.69,-200.23 867,-177.99 911.42,-167.95 923.26,-165.34 964,-144.99 966.02,-143.99 968.05,-142.87 970.07,-141.7"/>
<polygon fill="black" stroke="black" points="972.1,-144.55 978.69,-136.26 968.36,-138.63 972.1,-144.55"/>
<text text-anchor="middle" x="927.5" y="-166.79" font-family="Times,serif" font-size="14.00">{</text>
</g>
<!-- 17 -->
<g id="node18" class="node">
<title>17</title>
<ellipse fill="none" stroke="black" cx="1062" cy="-121.49" rx="19.5" ry="19.5"/>
<ellipse fill="none" stroke="black" cx="1062" cy="-121.49" rx="23.5" ry="23.5"/>
<text text-anchor="middle" x="1062" y="-117.79" font-family="Times,serif" font-size="14.00">17</text>
</g>
<!-- 0&#45;&gt;17 -->
<g id="edge17" class="edge">
<title>0&#45;&gt;17</title>
<path fill="none" stroke="black" d="M595.98,-212.64C657.06,-211.35 810.32,-205.41 935,-177.99 978.24,-168.48 989.48,-164.97 1029,-144.99 1031.01,-143.98 1033.04,-142.86 1035.06,-141.67"/>
<polygon fill="black" stroke="black" points="1037.09,-144.53 1043.67,-136.23 1033.35,-138.61 1037.09,-144.53"/>
<text text-anchor="middle" x="992" y="-166.79" font-family="Times,serif" font-size="14.00">;</text>
</g>
<!-- 18 -->
<g id="node19" class="node">
<title>18</title>
<ellipse fill="none" stroke="black" cx="1127" cy="-121.49" rx="19.5" ry="19.5"/>
<ellipse fill="none" stroke="black" cx="1127" cy="-121.49" rx="23.5" ry="23.5"/>
<text text-anchor="middle" x="1127" y="-117.79" font-family="Times,serif" font-size="14.00">18</text>
</g>
<!-- 0&#45;&gt;18 -->
<g id="edge18" class="edge">
<title>0&#45;&gt;18</title>
<path fill="none" stroke="black" d="M596.44,-213.11C664.96,-212.9 848.79,-209.21 998,-177.99 1042.16,-168.75 1053.67,-165.21 1094,-144.99 1096.01,-143.98 1098.05,-142.87 1100.07,-141.69"/>
<polygon fill="black" stroke="black" points="1102.1,-144.55 1108.69,-136.25 1098.36,-138.63 1102.1,-144.55"/>
<text text-anchor="middle" x="1056" y="-166.79" font-family="Times,serif" font-size="14.00">,</text>
</g>
<!-- 24 -->
<g id="node25" class="node">
<title>24</title>
<ellipse fill="none" stroke="black" cx="89" cy="-23.5" rx="19.5" ry="19.5"/>
<ellipse fill="none" stroke="black" cx="89" cy="-23.5" rx="23.5" ry="23.5"/>
<text text-anchor="middle" x="89" y="-19.8" font-family="Times,serif" font-size="14.00">24</text>
</g>
<!-- 2&#45;&gt;24 -->
<g id="edge24" class="edge">
<title>2&#45;&gt;24</title>
<path fill="none" stroke="black" d="M89,-103.33C89,-90.63 89,-72.92 89,-57.5"/>
<polygon fill="black" stroke="black" points="92.5,-57.29 89,-47.29 85.5,-57.29 92.5,-57.29"/>
<text text-anchor="middle" x="91" y="-68.8" font-family="Times,serif" font-size="14.00">|</text>
</g>
<!-- 23 -->
<g id="node24" class="node">
<title>23</title>
<ellipse fill="none" stroke="black" cx="223" cy="-23.5" rx="19.5" ry="19.5"/>
<ellipse fill="none" stroke="black" cx="223" cy="-23.5" rx="23.5" ry="23.5"/>
<text text-anchor="middle" x="223" y="-19.8" font-family="Times,serif" font-size="14.00">23</text>
</g>
<!-- 4&#45;&gt;23 -->
<g id="edge23" class="edge">
<title>4&#45;&gt;23</title>
<path fill="none" stroke="black" d="M223,-103.33C223,-90.63 223,-72.92 223,-57.5"/>
<polygon fill="black" stroke="black" points="226.5,-57.29 223,-47.29 219.5,-57.29 226.5,-57.29"/>
<text text-anchor="middle" x="227.5" y="-68.8" font-family="Times,serif" font-size="14.00">=</text>
</g>
<!-- 22 -->
<g id="node23" class="node">
<title>22</title>
<ellipse fill="none" stroke="black" cx="352" cy="-23.5" rx="19.5" ry="19.5"/>
<ellipse fill="none" stroke="black" cx="352" cy="-23.5" rx="23.5" ry="23.5"/>
<text text-anchor="middle" x="352" y="-19.8" font-family="Times,serif" font-size="14.00">22</text>
</g>
<!-- 6&#45;&gt;22 -->
<g id="edge22" class="edge">
<title>6&#45;&gt;22</title>
<path fill="none" stroke="black" d="M352,-99.19C352,-86.87 352,-71.1 352,-57.23"/>
<polygon fill="black" stroke="black" points="355.5,-57.08 352,-47.08 348.5,-57.08 355.5,-57.08"/>
<text text-anchor="middle" x="356.5" y="-68.8" font-family="Times,serif" font-size="14.00">=</text>
</g>
<!-- 21 -->
<g id="node22" class="node">
<title>21</title>
<ellipse fill="none" stroke="black" cx="666" cy="-23.5" rx="19.5" ry="19.5"/>
<ellipse fill="none" stroke="black" cx="666" cy="-23.5" rx="23.5" ry="23.5"/>
<text text-anchor="middle" x="666" y="-19.8" font-family="Times,serif" font-size="14.00">21</text>
</g>
<!-- 11&#45;&gt;21 -->
<g id="edge21" class="edge">
<title>11&#45;&gt;21</title>
<path fill="none" stroke="black" d="M666,-97.74C666,-85.67 666,-70.62 666,-57.3"/>
<polygon fill="black" stroke="black" points="669.5,-57.08 666,-47.08 662.5,-57.08 669.5,-57.08"/>
<text text-anchor="middle" x="670.5" y="-68.8" font-family="Times,serif" font-size="14.00">=</text>
</g>
<!-- 20 -->
<g id="node21" class="node">
<title>20</title>
<ellipse fill="none" stroke="black" cx="731" cy="-23.5" rx="19.5" ry="19.5"/>
<ellipse fill="none" stroke="black" cx="731" cy="-23.5" rx="23.5" ry="23.5"/>
<text text-anchor="middle" x="731" y="-19.8" font-family="Times,serif" font-size="14.00">20</text>
</g>
<!-- 12&#45;&gt;20 -->
<g id="edge20" class="edge">
<title>12&#45;&gt;20</title>
<path fill="none" stroke="black" d="M731,-97.74C731,-85.67 731,-70.62 731,-57.3"/>
<polygon fill="black" stroke="black" points="734.5,-57.08 731,-47.08 727.5,-57.08 734.5,-57.08"/>
<text text-anchor="middle" x="735.5" y="-68.8" font-family="Times,serif" font-size="14.00">=</text>
</g>
<!-- 19 -->
<g id="node20" class="node">
<title>19</title>
<ellipse fill="none" stroke="black" cx="864" cy="-23.5" rx="19.5" ry="19.5"/>
<ellipse fill="none" stroke="black" cx="864" cy="-23.5" rx="23.5" ry="23.5"/>
<text text-anchor="middle" x="864" y="-19.8" font-family="Times,serif" font-size="14.00">19</text>
</g>
<!-- 14&#45;&gt;19 -->
<g id="edge19" class="edge">
<title>14&#45;&gt;19</title>
<path fill="none" stroke="black" d="M864,-103.33C864,-90.63 864,-72.92 864,-57.5"/>
<polygon fill="black" stroke="black" points="867.5,-57.29 864,-47.29 860.5,-57.29 867.5,-57.29"/>
<text text-anchor="middle" x="870" y="-68.8" font-family="Times,serif" font-size="14.00">&amp;</text>
</g>
</g>
</svg>
