<?xml version="1.0" encoding="UTF-8" standalone="no"?>
<!DOCTYPE svg PUBLIC "-//W3C//DTD SVG 1.1//EN"
 "http://www.w3.org/Graphics/SVG/1.1/DTD/svg11.dtd">
<!-- Generated by graphviz version 6.0.2 (20221011.1828)
 -->
<!-- Pages: 1 -->
<svg width="1157pt" height="240pt"
 viewBox="0.00 0.00 1157.00 239.99" xmlns="http://www.w3.org/2000/svg" xmlns:xlink="http://www.w3.org/1999/xlink">
<g id="graph0" class="graph" transform="scale(1 1) rotate(0) translate(4 235.99)">
<polygon fill="white" stroke="none" points="-4,4 -4,-235.99 1153,-235.99 1153,4 -4,4"/>
<!-- 0 -->
<g id="node1" class="node">
<title>0</title>
<ellipse fill="none" stroke="red" cx="560.5" cy="-213.99" rx="27" ry="18"/>
<text text-anchor="middle" x="560.5" y="-210.29" font-family="Times,serif" font-size="14.00">0</text>
</g>
<!-- 1 -->
<g id="node2" class="node">
<title>1</title>
<ellipse fill="none" stroke="black" cx="23.5" cy="-121.49" rx="18" ry="18"/>
<ellipse fill="none" stroke="black" cx="23.5" cy="-121.49" rx="22" ry="22"/>
<text text-anchor="middle" x="23.5" y="-117.79" font-family="Times,serif" font-size="14.00">1</text>
</g>
<!-- 0&#45;&gt;1 -->
<g id="edge1" class="edge">
<title>0&#45;&gt;1</title>
<path fill="none" stroke="black" d="M533.17,-212.78C467.44,-211.82 295.53,-206.53 155.5,-177.99 109.22,-168.56 96.56,-166.46 54.5,-144.99 52.53,-143.99 50.54,-142.86 48.58,-141.66"/>
<polygon fill="black" stroke="black" points="50.52,-138.75 40.26,-136.11 46.64,-144.57 50.52,-138.75"/>
<text text-anchor="middle" x="160" y="-166.79" font-family="Times,serif" font-size="14.00">=</text>
</g>
<!-- 2 -->
<g id="node3" class="node">
<title>2</title>
<ellipse fill="none" stroke="black" cx="90.5" cy="-121.49" rx="27" ry="18"/>
<text text-anchor="middle" x="90.5" y="-117.79" font-family="Times,serif" font-size="14.00">2</text>
</g>
<!-- 0&#45;&gt;2 -->
<g id="edge2" class="edge">
<title>0&#45;&gt;2</title>
<path fill="none" stroke="black" d="M533.35,-212.32C475.4,-210.41 335.57,-203.34 221.5,-177.99 177.86,-168.3 166.81,-164.29 126.5,-144.99 123.51,-143.56 120.45,-141.94 117.46,-140.23"/>
<polygon fill="black" stroke="black" points="119.11,-137.14 108.73,-134.99 115.5,-143.14 119.11,-137.14"/>
<text text-anchor="middle" x="223.5" y="-166.79" font-family="Times,serif" font-size="14.00">|</text>
</g>
<!-- 3 -->
<g id="node4" class="node">
<title>3</title>
<ellipse fill="none" stroke="black" cx="157.5" cy="-121.49" rx="18" ry="18"/>
<ellipse fill="none" stroke="black" cx="157.5" cy="-121.49" rx="22" ry="22"/>
<text text-anchor="middle" x="157.5" y="-117.79" font-family="Times,serif" font-size="14.00">3</text>
</g>
<!-- 0&#45;&gt;3 -->
<g id="edge3" class="edge">
<title>0&#45;&gt;3</title>
<path fill="none" stroke="black" d="M533.64,-211.38C484.06,-207.99 375.06,-198.7 285.5,-177.99 241.13,-167.73 228.93,-165.94 188.5,-144.99 186.53,-143.97 184.55,-142.84 182.59,-141.64"/>
<polygon fill="black" stroke="black" points="184.54,-138.73 174.28,-136.07 180.65,-144.54 184.54,-138.73"/>
<text text-anchor="middle" x="290" y="-166.79" font-family="Times,serif" font-size="14.00">&gt;</text>
</g>
<!-- 4 -->
<g id="node5" class="node">
<title>4</title>
<ellipse fill="none" stroke="black" cx="219.5" cy="-121.49" rx="18" ry="18"/>
<ellipse fill="none" stroke="black" cx="219.5" cy="-121.49" rx="22" ry="22"/>
<text text-anchor="middle" x="219.5" y="-117.79" font-family="Times,serif" font-size="14.00">4</text>
</g>
<!-- 0&#45;&gt;4 -->
<g id="edge4" class="edge">
<title>0&#45;&gt;4</title>
<path fill="none" stroke="black" d="M533.59,-211.83C477.72,-208.42 346.4,-195.25 250.5,-144.99 248.54,-143.96 246.56,-142.82 244.61,-141.62"/>
<polygon fill="black" stroke="black" points="246.55,-138.71 236.3,-136.04 242.65,-144.52 246.55,-138.71"/>
<text text-anchor="middle" x="336" y="-166.79" font-family="Times,serif" font-size="14.00">+</text>
</g>
<!-- 5 -->
<g id="node6" class="node">
<title>5</title>
<ellipse fill="none" stroke="black" cx="281.5" cy="-121.49" rx="18" ry="18"/>
<ellipse fill="none" stroke="black" cx="281.5" cy="-121.49" rx="22" ry="22"/>
<text text-anchor="middle" x="281.5" y="-117.79" font-family="Times,serif" font-size="14.00">5</text>
</g>
<!-- 0&#45;&gt;5 -->
<g id="edge5" class="edge">
<title>0&#45;&gt;5</title>
<path fill="none" stroke="black" d="M534.1,-209.67C487.18,-202.92 387.16,-184.78 312.5,-144.99 310.54,-143.95 308.57,-142.8 306.62,-141.58"/>
<polygon fill="black" stroke="black" points="308.57,-138.68 298.32,-135.99 304.66,-144.48 308.57,-138.68"/>
<text text-anchor="middle" x="394" y="-166.79" font-family="Times,serif" font-size="14.00">*</text>
</g>
<!-- 6 -->
<g id="node7" class="node">
<title>6</title>
<ellipse fill="none" stroke="black" cx="343.5" cy="-121.49" rx="18" ry="18"/>
<ellipse fill="none" stroke="black" cx="343.5" cy="-121.49" rx="22" ry="22"/>
<text text-anchor="middle" x="343.5" y="-117.79" font-family="Times,serif" font-size="14.00">6</text>
</g>
<!-- 0&#45;&gt;6 -->
<g id="edge6" class="edge">
<title>0&#45;&gt;6</title>
<path fill="none" stroke="black" d="M535.69,-206.55C499.03,-196.45 428.87,-174.92 374.5,-144.99 372.56,-143.92 370.6,-142.75 368.65,-141.52"/>
<polygon fill="black" stroke="black" points="370.61,-138.62 360.37,-135.9 366.68,-144.42 370.61,-138.62"/>
<text text-anchor="middle" x="447" y="-166.79" font-family="Times,serif" font-size="14.00">(</text>
</g>
<!-- 7 -->
<g id="node8" class="node">
<title>7</title>
<ellipse fill="none" stroke="black" cx="405.5" cy="-121.49" rx="18" ry="18"/>
<ellipse fill="none" stroke="black" cx="405.5" cy="-121.49" rx="22" ry="22"/>
<text text-anchor="middle" x="405.5" y="-117.79" font-family="Times,serif" font-size="14.00">7</text>
</g>
<!-- 0&#45;&gt;7 -->
<g id="edge7" class="edge">
<title>0&#45;&gt;7</title>
<path fill="none" stroke="black" d="M539.41,-202.46C514.36,-189.72 471.55,-167.2 436.5,-144.99 434.63,-143.81 432.72,-142.55 430.81,-141.26"/>
<polygon fill="black" stroke="black" points="432.81,-138.38 422.61,-135.5 428.79,-144.11 432.81,-138.38"/>
<text text-anchor="middle" x="492.5" y="-166.79" font-family="Times,serif" font-size="14.00">;</text>
</g>
<!-- 8 -->
<g id="node9" class="node">
<title>8</title>
<ellipse fill="none" stroke="black" cx="467.5" cy="-121.49" rx="18" ry="18"/>
<ellipse fill="none" stroke="black" cx="467.5" cy="-121.49" rx="22" ry="22"/>
<text text-anchor="middle" x="467.5" y="-117.79" font-family="Times,serif" font-size="14.00">8</text>
</g>
<!-- 0&#45;&gt;8 -->
<g id="edge8" class="edge">
<title>0&#45;&gt;8</title>
<path fill="none" stroke="black" d="M545.56,-198.45C530.68,-183.98 507.66,-161.57 490.46,-144.84"/>
<polygon fill="black" stroke="black" points="492.63,-142.07 483.02,-137.6 487.75,-147.08 492.63,-142.07"/>
<text text-anchor="middle" x="525" y="-166.79" font-family="Times,serif" font-size="14.00">&#45;</text>
</g>
<!-- 9 -->
<g id="node10" class="node">
<title>9</title>
<ellipse fill="none" stroke="black" cx="529.5" cy="-121.49" rx="18" ry="18"/>
<ellipse fill="none" stroke="black" cx="529.5" cy="-121.49" rx="22" ry="22"/>
<text text-anchor="middle" x="529.5" y="-117.79" font-family="Times,serif" font-size="14.00">9</text>
</g>
<!-- 0&#45;&gt;9 -->
<g id="edge9" class="edge">
<title>0&#45;&gt;9</title>
<path fill="none" stroke="black" d="M554.81,-196.39C550.58,-184.04 544.69,-166.84 539.66,-152.15"/>
<polygon fill="black" stroke="black" points="542.89,-150.79 536.34,-142.46 536.27,-153.06 542.89,-150.79"/>
<text text-anchor="middle" x="550.5" y="-166.79" font-family="Times,serif" font-size="14.00">/</text>
</g>
<!-- 10 -->
<g id="node11" class="node">
<title>10</title>
<ellipse fill="none" stroke="black" cx="592.5" cy="-121.49" rx="19.5" ry="19.5"/>
<ellipse fill="none" stroke="black" cx="592.5" cy="-121.49" rx="23.5" ry="23.5"/>
<text text-anchor="middle" x="592.5" y="-117.79" font-family="Times,serif" font-size="14.00">10</text>
</g>
<!-- 0&#45;&gt;10 -->
<g id="edge10" class="edge">
<title>0&#45;&gt;10</title>
<path fill="none" stroke="black" d="M566.37,-196.39C570.62,-184.37 576.49,-167.76 581.59,-153.34"/>
<polygon fill="black" stroke="black" points="584.94,-154.38 584.97,-143.78 578.34,-152.04 584.94,-154.38"/>
<text text-anchor="middle" x="581" y="-166.79" font-family="Times,serif" font-size="14.00">{</text>
</g>
<!-- 11 -->
<g id="node12" class="node">
<title>11</title>
<ellipse fill="none" stroke="black" cx="657.5" cy="-121.49" rx="19.5" ry="19.5"/>
<ellipse fill="none" stroke="black" cx="657.5" cy="-121.49" rx="23.5" ry="23.5"/>
<text text-anchor="middle" x="657.5" y="-117.79" font-family="Times,serif" font-size="14.00">11</text>
</g>
<!-- 0&#45;&gt;11 -->
<g id="edge11" class="edge">
<title>0&#45;&gt;11</title>
<path fill="none" stroke="black" d="M575.65,-198.85C591.13,-184.41 615.39,-161.78 633.49,-144.89"/>
<polygon fill="black" stroke="black" points="635.9,-147.43 640.82,-138.05 631.12,-142.31 635.9,-147.43"/>
<text text-anchor="middle" x="615" y="-166.79" font-family="Times,serif" font-size="14.00">)</text>
</g>
<!-- 12 -->
<g id="node13" class="node">
<title>12</title>
<ellipse fill="none" stroke="black" cx="722.5" cy="-121.49" rx="19.5" ry="19.5"/>
<ellipse fill="none" stroke="black" cx="722.5" cy="-121.49" rx="23.5" ry="23.5"/>
<text text-anchor="middle" x="722.5" y="-117.79" font-family="Times,serif" font-size="14.00">12</text>
</g>
<!-- 0&#45;&gt;12 -->
<g id="edge12" class="edge">
<title>0&#45;&gt;12</title>
<path fill="none" stroke="black" d="M581.91,-202.64C607.84,-189.89 652.62,-167.19 689.5,-144.99 691.24,-143.95 693.01,-142.85 694.78,-141.72"/>
<polygon fill="black" stroke="black" points="697.11,-144.37 703.54,-135.96 693.27,-138.53 697.11,-144.37"/>
<text text-anchor="middle" x="659" y="-166.79" font-family="Times,serif" font-size="14.00">}</text>
</g>
<!-- 13 -->
<g id="node14" class="node">
<title>13</title>
<ellipse fill="none" stroke="black" cx="787.5" cy="-121.49" rx="19.5" ry="19.5"/>
<ellipse fill="none" stroke="black" cx="787.5" cy="-121.49" rx="23.5" ry="23.5"/>
<text text-anchor="middle" x="787.5" y="-117.79" font-family="Times,serif" font-size="14.00">13</text>
</g>
<!-- 0&#45;&gt;13 -->
<g id="edge13" class="edge">
<title>0&#45;&gt;13</title>
<path fill="none" stroke="black" d="M585.3,-206.73C623.11,-196.66 696.84,-174.91 754.5,-144.99 756.3,-144.06 758.12,-143.04 759.93,-141.98"/>
<polygon fill="black" stroke="black" points="762.2,-144.69 768.79,-136.39 758.46,-138.77 762.2,-144.69"/>
<text text-anchor="middle" x="716.5" y="-166.79" font-family="Times,serif" font-size="14.00">,</text>
</g>
<!-- 14 -->
<g id="node15" class="node">
<title>14</title>
<ellipse fill="none" stroke="black" cx="852.5" cy="-121.49" rx="19.5" ry="19.5"/>
<ellipse fill="none" stroke="black" cx="852.5" cy="-121.49" rx="23.5" ry="23.5"/>
<text text-anchor="middle" x="852.5" y="-117.79" font-family="Times,serif" font-size="14.00">14</text>
</g>
<!-- 0&#45;&gt;14 -->
<g id="edge14" class="edge">
<title>0&#45;&gt;14</title>
<path fill="none" stroke="black" d="M586.75,-209.74C634.98,-202.99 740.06,-184.66 819.5,-144.99 821.51,-143.99 823.55,-142.87 825.57,-141.7"/>
<polygon fill="black" stroke="black" points="827.6,-144.55 834.19,-136.26 823.86,-138.63 827.6,-144.55"/>
<text text-anchor="middle" x="778" y="-166.79" font-family="Times,serif" font-size="14.00">&lt;</text>
</g>
<!-- 15 -->
<g id="node16" class="node">
<title>15</title>
<ellipse fill="none" stroke="black" cx="920.5" cy="-121.49" rx="27" ry="18"/>
<text text-anchor="middle" x="920.5" y="-117.79" font-family="Times,serif" font-size="14.00">15</text>
</g>
<!-- 0&#45;&gt;15 -->
<g id="edge15" class="edge">
<title>0&#45;&gt;15</title>
<path fill="none" stroke="black" d="M587.45,-211.56C644.76,-207.64 781.88,-193.52 884.5,-144.99 887.5,-143.58 890.55,-141.96 893.55,-140.26"/>
<polygon fill="black" stroke="black" points="895.51,-143.17 902.28,-135.03 891.91,-137.17 895.51,-143.17"/>
<text text-anchor="middle" x="841.5" y="-166.79" font-family="Times,serif" font-size="14.00">&amp;</text>
</g>
<!-- 16 -->
<g id="node17" class="node">
<title>16</title>
<ellipse fill="none" stroke="black" cx="992.5" cy="-121.49" rx="27" ry="18"/>
<text text-anchor="middle" x="992.5" y="-117.79" font-family="Times,serif" font-size="14.00">16</text>
</g>
<!-- 0&#45;&gt;16 -->
<g id="edge16" class="edge">
<title>0&#45;&gt;16</title>
<path fill="none" stroke="black" d="M587.25,-211.43C638.85,-208.06 755.49,-198.67 851.5,-177.99 899.32,-167.7 912.07,-165.45 956.5,-144.99 959.51,-143.61 962.58,-142.01 965.58,-140.32"/>
<polygon fill="black" stroke="black" points="967.53,-143.24 974.32,-135.11 963.94,-137.23 967.53,-143.24"/>
<text text-anchor="middle" x="915" y="-166.79" font-family="Times,serif" font-size="14.00">!</text>
</g>
<!-- 17 -->
<g id="node18" class="node">
<title>17</title>
<ellipse fill="none" stroke="black" cx="1060.5" cy="-121.49" rx="19.5" ry="19.5"/>
<ellipse fill="none" stroke="black" cx="1060.5" cy="-121.49" rx="23.5" ry="23.5"/>
<text text-anchor="middle" x="1060.5" y="-117.79" font-family="Times,serif" font-size="14.00">17</text>
</g>
<!-- 0&#45;&gt;17 -->
<g id="edge17" class="edge">
<title>0&#45;&gt;17</title>
<path fill="none" stroke="black" d="M587.49,-212.24C647.89,-210.15 798.33,-202.69 921.5,-177.99 970.29,-168.21 983.82,-166.91 1028.5,-144.99 1030.28,-144.12 1032.08,-143.15 1033.85,-142.12"/>
<polygon fill="black" stroke="black" points="1035.94,-144.94 1042.5,-136.62 1032.18,-139.04 1035.94,-144.94"/>
<text text-anchor="middle" x="993" y="-166.79" font-family="Times,serif" font-size="14.00">%</text>
</g>
<!-- 18 -->
<g id="node19" class="node">
<title>18</title>
<ellipse fill="none" stroke="black" cx="1125.5" cy="-121.49" rx="19.5" ry="19.5"/>
<ellipse fill="none" stroke="black" cx="1125.5" cy="-121.49" rx="23.5" ry="23.5"/>
<text text-anchor="middle" x="1125.5" y="-117.79" font-family="Times,serif" font-size="14.00">18</text>
</g>
<!-- 0&#45;&gt;18 -->
<g id="edge18" class="edge">
<title>0&#45;&gt;18</title>
<path fill="none" stroke="black" d="M587.59,-213.43C657.42,-214.01 848.86,-212.08 1003.5,-177.99 1044.7,-168.91 1055.01,-164.35 1092.5,-144.99 1094.5,-143.96 1096.53,-142.82 1098.54,-141.63"/>
<polygon fill="black" stroke="black" points="1100.58,-144.48 1107.14,-136.17 1096.82,-138.57 1100.58,-144.48"/>
<text text-anchor="middle" x="1056.5" y="-166.79" font-family="Times,serif" font-size="14.00">:</text>
</g>
<!-- 24 -->
<g id="node25" class="node">
<title>24</title>
<ellipse fill="none" stroke="black" cx="23.5" cy="-23.5" rx="19.5" ry="19.5"/>
<ellipse fill="none" stroke="black" cx="23.5" cy="-23.5" rx="23.5" ry="23.5"/>
<text text-anchor="middle" x="23.5" y="-19.8" font-family="Times,serif" font-size="14.00">24</text>
</g>
<!-- 1&#45;&gt;24 -->
<g id="edge24" class="edge">
<title>1&#45;&gt;24</title>
<path fill="none" stroke="black" d="M23.5,-99.19C23.5,-86.87 23.5,-71.1 23.5,-57.23"/>
<polygon fill="black" stroke="black" points="27,-57.08 23.5,-47.08 20,-57.08 27,-57.08"/>
<text text-anchor="middle" x="28" y="-68.8" font-family="Times,serif" font-size="14.00">=</text>
</g>
<!-- 23 -->
<g id="node24" class="node">
<title>23</title>
<ellipse fill="none" stroke="black" cx="90.5" cy="-23.5" rx="19.5" ry="19.5"/>
<ellipse fill="none" stroke="black" cx="90.5" cy="-23.5" rx="23.5" ry="23.5"/>
<text text-anchor="middle" x="90.5" y="-19.8" font-family="Times,serif" font-size="14.00">23</text>
</g>
<!-- 2&#45;&gt;23 -->
<g id="edge23" class="edge">
<title>2&#45;&gt;23</title>
<path fill="none" stroke="black" d="M90.5,-103.33C90.5,-90.63 90.5,-72.92 90.5,-57.5"/>
<polygon fill="black" stroke="black" points="94,-57.29 90.5,-47.29 87,-57.29 94,-57.29"/>
<text text-anchor="middle" x="92.5" y="-68.8" font-family="Times,serif" font-size="14.00">|</text>
</g>
<!-- 22 -->
<g id="node23" class="node">
<title>22</title>
<ellipse fill="none" stroke="black" cx="157.5" cy="-23.5" rx="19.5" ry="19.5"/>
<ellipse fill="none" stroke="black" cx="157.5" cy="-23.5" rx="23.5" ry="23.5"/>
<text text-anchor="middle" x="157.5" y="-19.8" font-family="Times,serif" font-size="14.00">22</text>
</g>
<!-- 3&#45;&gt;22 -->
<g id="edge22" class="edge">
<title>3&#45;&gt;22</title>
<path fill="none" stroke="black" d="M157.5,-99.19C157.5,-86.87 157.5,-71.1 157.5,-57.23"/>
<polygon fill="black" stroke="black" points="161,-57.08 157.5,-47.08 154,-57.08 161,-57.08"/>
<text text-anchor="middle" x="162" y="-68.8" font-family="Times,serif" font-size="14.00">=</text>
</g>
<!-- 21 -->
<g id="node22" class="node">
<title>21</title>
<ellipse fill="none" stroke="black" cx="852.5" cy="-23.5" rx="19.5" ry="19.5"/>
<ellipse fill="none" stroke="black" cx="852.5" cy="-23.5" rx="23.5" ry="23.5"/>
<text text-anchor="middle" x="852.5" y="-19.8" font-family="Times,serif" font-size="14.00">21</text>
</g>
<!-- 14&#45;&gt;21 -->
<g id="edge21" class="edge">
<title>14&#45;&gt;21</title>
<path fill="none" stroke="black" d="M852.5,-97.74C852.5,-85.67 852.5,-70.62 852.5,-57.3"/>
<polygon fill="black" stroke="black" points="856,-57.08 852.5,-47.08 849,-57.08 856,-57.08"/>
<text text-anchor="middle" x="857" y="-68.8" font-family="Times,serif" font-size="14.00">=</text>
</g>
<!-- 20 -->
<g id="node21" class="node">
<title>20</title>
<ellipse fill="none" stroke="black" cx="920.5" cy="-23.5" rx="19.5" ry="19.5"/>
<ellipse fill="none" stroke="black" cx="920.5" cy="-23.5" rx="23.5" ry="23.5"/>
<text text-anchor="middle" x="920.5" y="-19.8" font-family="Times,serif" font-size="14.00">20</text>
</g>
<!-- 15&#45;&gt;20 -->
<g id="edge20" class="edge">
<title>15&#45;&gt;20</title>
<path fill="none" stroke="black" d="M920.5,-103.33C920.5,-90.63 920.5,-72.92 920.5,-57.5"/>
<polygon fill="black" stroke="black" points="924,-57.29 920.5,-47.29 917,-57.29 924,-57.29"/>
<text text-anchor="middle" x="926.5" y="-68.8" font-family="Times,serif" font-size="14.00">&amp;</text>
</g>
<!-- 19 -->
<g id="node20" class="node">
<title>19</title>
<ellipse fill="none" stroke="black" cx="992.5" cy="-23.5" rx="19.5" ry="19.5"/>
<ellipse fill="none" stroke="black" cx="992.5" cy="-23.5" rx="23.5" ry="23.5"/>
<text text-anchor="middle" x="992.5" y="-19.8" font-family="Times,serif" font-size="14.00">19</text>
</g>
<!-- 16&#45;&gt;19 -->
<g id="edge19" class="edge">
<title>16&#45;&gt;19</title>
<path fill="none" stroke="black" d="M992.5,-103.33C992.5,-90.63 992.5,-72.92 992.5,-57.5"/>
<polygon fill="black" stroke="black" points="996,-57.29 992.5,-47.29 989,-57.29 996,-57.29"/>
<text text-anchor="middle" x="997" y="-68.8" font-family="Times,serif" font-size="14.00">=</text>
</g>
</g>
</svg>
