<?xml version="1.0" encoding="UTF-8" standalone="no"?>
<!DOCTYPE svg PUBLIC "-//W3C//DTD SVG 1.1//EN"
 "http://www.w3.org/Graphics/SVG/1.1/DTD/svg11.dtd">
<!-- Generated by graphviz version 6.0.2 (20221011.1828)
 -->
<!-- Pages: 1 -->
<svg width="847pt" height="226pt"
 viewBox="0.00 0.00 847.00 226.00" xmlns="http://www.w3.org/2000/svg" xmlns:xlink="http://www.w3.org/1999/xlink">
<g id="graph0" class="graph" transform="scale(1 1) rotate(0) translate(4 222)">
<polygon fill="white" stroke="none" points="-4,4 -4,-222 843,-222 843,4 -4,4"/>
<!-- 1 -->
<g id="node1" class="node">
<title>1</title>
<ellipse fill="none" stroke="black" cx="27" cy="-113" rx="27" ry="18"/>
<text text-anchor="middle" x="27" y="-109.3" font-family="Times,serif" font-size="14.00">1</text>
</g>
<!-- 0 -->
<g id="node2" class="node">
<title>0</title>
<ellipse fill="none" stroke="black" cx="410" cy="-22" rx="18" ry="18"/>
<ellipse fill="none" stroke="black" cx="410" cy="-22" rx="22" ry="22"/>
<text text-anchor="middle" x="410" y="-18.3" font-family="Times,serif" font-size="14.00">0</text>
</g>
<!-- 1&#45;&gt;0 -->
<g id="edge1" class="edge">
<title>1&#45;&gt;0</title>
<path fill="none" stroke="black" d="M36.72,-96.09C44.69,-84.57 57.06,-69.71 72,-62 124.91,-34.7 304.08,-26.21 377.85,-23.84"/>
<polygon fill="black" stroke="black" points="378.05,-27.33 387.94,-23.53 377.84,-20.33 378.05,-27.33"/>
<text text-anchor="middle" x="74" y="-65.8" font-family="Times,serif" font-size="14.00">|</text>
</g>
<!-- 3 -->
<g id="node3" class="node">
<title>3</title>
<ellipse fill="none" stroke="red" cx="410" cy="-200" rx="27" ry="18"/>
<text text-anchor="middle" x="410" y="-196.3" font-family="Times,serif" font-size="14.00">3</text>
</g>
<!-- 3&#45;&gt;1 -->
<g id="edge3" class="edge">
<title>3&#45;&gt;1</title>
<path fill="none" stroke="black" d="M383.07,-198.68C312.92,-197.45 126.29,-191.62 72,-164 60.41,-158.1 50.38,-147.87 42.76,-138.2"/>
<polygon fill="black" stroke="black" points="45.44,-135.94 36.7,-129.96 39.8,-140.09 45.44,-135.94"/>
<text text-anchor="middle" x="74" y="-152.8" font-family="Times,serif" font-size="14.00">|</text>
</g>
<!-- 3&#45;&gt;0 -->
<g id="edge2" class="edge">
<title>3&#45;&gt;0</title>
<path fill="none" stroke="black" d="M382.91,-198.88C319.39,-198.11 163.01,-193.22 121,-164 107.46,-154.58 107.89,-147.03 104,-131 96.56,-100.31 95.2,-80.21 121,-62 161.75,-33.24 310.97,-25.65 377.55,-23.68"/>
<polygon fill="black" stroke="black" points="377.97,-27.17 387.87,-23.4 377.78,-20.17 377.97,-27.17"/>
<text text-anchor="middle" x="108.5" y="-109.3" font-family="Times,serif" font-size="14.00">=</text>
</g>
<!-- 3&#45;&gt;0 -->
<g id="edge4" class="edge">
<title>3&#45;&gt;0</title>
<path fill="none" stroke="black" d="M382.99,-198.19C326.96,-196.03 200.42,-188.51 166,-164 152.56,-154.43 152.89,-147.03 149,-131 141.56,-100.31 140.42,-80.53 166,-62 199.28,-37.9 319.4,-28.03 377.74,-24.59"/>
<polygon fill="black" stroke="black" points="378.1,-28.07 387.88,-24.02 377.7,-21.08 378.1,-28.07"/>
<text text-anchor="middle" x="153.5" y="-109.3" font-family="Times,serif" font-size="14.00">&gt;</text>
</g>
<!-- 3&#45;&gt;0 -->
<g id="edge5" class="edge">
<title>3&#45;&gt;0</title>
<path fill="none" stroke="black" d="M383.24,-197.22C335.47,-193.57 237.98,-183.86 211,-164 197.71,-154.22 197.89,-147.03 194,-131 186.56,-100.31 185.75,-80.97 211,-62 236.9,-42.55 328.37,-30.91 377.78,-25.9"/>
<polygon fill="black" stroke="black" points="378.32,-29.37 387.93,-24.91 377.63,-22.4 378.32,-29.37"/>
<text text-anchor="middle" x="198.5" y="-109.3" font-family="Times,serif" font-size="14.00">+</text>
</g>
<!-- 3&#45;&gt;0 -->
<g id="edge6" class="edge">
<title>3&#45;&gt;0</title>
<path fill="none" stroke="black" d="M382.9,-199.9C349.07,-199.59 291.16,-194.2 254,-164 241.5,-153.84 242.41,-146.75 239,-131 232.36,-100.33 229.89,-82.09 254,-62 289.13,-32.74 343.16,-24.95 377.53,-23.14"/>
<polygon fill="black" stroke="black" points="378.09,-26.63 387.95,-22.75 377.82,-19.63 378.09,-26.63"/>
<text text-anchor="middle" x="242.5" y="-109.3" font-family="Times,serif" font-size="14.00">*</text>
</g>
<!-- 3&#45;&gt;0 -->
<g id="edge7" class="edge">
<title>3&#45;&gt;0</title>
<path fill="none" stroke="black" d="M383,-197.37C357.36,-194.46 319.23,-186.37 295,-164 283.42,-153.31 284.94,-146.49 282,-131 276.18,-100.34 272.41,-83.53 295,-62 317.67,-40.4 352.75,-30.73 378.2,-26.43"/>
<polygon fill="black" stroke="black" points="378.75,-29.88 388.12,-24.94 377.71,-22.96 378.75,-29.88"/>
<text text-anchor="middle" x="284.5" y="-109.3" font-family="Times,serif" font-size="14.00">(</text>
</g>
<!-- 3&#45;&gt;0 -->
<g id="edge8" class="edge">
<title>3&#45;&gt;0</title>
<path fill="none" stroke="black" d="M385.07,-192.75C368.84,-187.52 348.29,-178.52 335,-164 324.46,-152.49 325.71,-146.37 323,-131 317.6,-100.35 314.47,-85.4 335,-62 346.75,-48.6 364.22,-39.14 379.35,-32.9"/>
<polygon fill="black" stroke="black" points="380.78,-36.1 388.86,-29.25 378.27,-29.56 380.78,-36.1"/>
<text text-anchor="middle" x="325" y="-109.3" font-family="Times,serif" font-size="14.00">;</text>
</g>
<!-- 3&#45;&gt;0 -->
<g id="edge9" class="edge">
<title>3&#45;&gt;0</title>
<path fill="none" stroke="black" d="M394.02,-185.14C387.79,-179.12 380.96,-171.69 376,-164 359.08,-137.78 357.18,-125.66 363,-95 365.94,-79.51 367.81,-75.47 376,-62 379.43,-56.36 383.69,-50.74 388.03,-45.6"/>
<polygon fill="black" stroke="black" points="390.77,-47.78 394.79,-37.98 385.53,-43.13 390.77,-47.78"/>
<text text-anchor="middle" x="365.5" y="-109.3" font-family="Times,serif" font-size="14.00">&#45;</text>
</g>
<!-- 3&#45;&gt;0 -->
<g id="edge10" class="edge">
<title>3&#45;&gt;0</title>
<path fill="none" stroke="black" d="M408.08,-181.98C406.63,-168.24 404.77,-148.4 404,-131 403.3,-115.02 403.34,-110.99 404,-95 404.56,-81.59 405.7,-66.8 406.84,-54.14"/>
<polygon fill="black" stroke="black" points="410.33,-54.36 407.78,-44.08 403.36,-53.71 410.33,-54.36"/>
<text text-anchor="middle" x="406" y="-109.3" font-family="Times,serif" font-size="14.00">/</text>
</g>
<!-- 3&#45;&gt;0 -->
<g id="edge11" class="edge">
<title>3&#45;&gt;0</title>
<path fill="none" stroke="black" d="M413.51,-181.98C414.53,-176.29 415.5,-169.9 416,-164 419.84,-118.83 419.46,-107.2 416,-62 415.8,-59.43 415.54,-56.77 415.22,-54.11"/>
<polygon fill="black" stroke="black" points="418.66,-53.41 413.83,-43.98 411.72,-54.37 418.66,-53.41"/>
<text text-anchor="middle" x="421.5" y="-109.3" font-family="Times,serif" font-size="14.00">{</text>
</g>
<!-- 3&#45;&gt;0 -->
<g id="edge12" class="edge">
<title>3&#45;&gt;0</title>
<path fill="none" stroke="black" d="M421.23,-183.38C424.76,-177.58 428.2,-170.76 430,-164 441.64,-120.19 440.64,-106.07 430,-62 429.04,-58.04 427.61,-54.02 425.94,-50.15"/>
<polygon fill="black" stroke="black" points="428.98,-48.4 421.45,-40.95 422.69,-51.47 428.98,-48.4"/>
<text text-anchor="middle" x="440.5" y="-109.3" font-family="Times,serif" font-size="14.00">)</text>
</g>
<!-- 3&#45;&gt;0 -->
<g id="edge13" class="edge">
<title>3&#45;&gt;0</title>
<path fill="none" stroke="black" d="M427.75,-185.92C434.37,-180.01 441.19,-172.46 445,-164 457.59,-136.02 447.93,-125.67 447,-95 446.56,-80.31 450.67,-75.56 445,-62 442.31,-55.57 438.1,-49.5 433.52,-44.14"/>
<polygon fill="black" stroke="black" points="436.07,-41.75 426.67,-36.85 430.96,-46.54 436.07,-41.75"/>
<text text-anchor="middle" x="454.5" y="-109.3" font-family="Times,serif" font-size="14.00">}</text>
</g>
<!-- 3&#45;&gt;0 -->
<g id="edge14" class="edge">
<title>3&#45;&gt;0</title>
<path fill="none" stroke="black" d="M432.39,-189.58C443.04,-183.85 454.77,-175.4 461,-164 475.7,-137.08 462.93,-125.66 462,-95 461.56,-80.31 466.84,-75 460,-62 454.96,-52.43 446.43,-44.46 437.82,-38.27"/>
<polygon fill="black" stroke="black" points="439.6,-35.25 429.32,-32.69 435.75,-41.1 439.6,-35.25"/>
<text text-anchor="middle" x="469" y="-109.3" font-family="Times,serif" font-size="14.00">,</text>
</g>
<!-- 3&#45;&gt;0 -->
<g id="edge15" class="edge">
<title>3&#45;&gt;0</title>
<path fill="none" stroke="black" d="M434.94,-192.98C449.96,-187.93 467.89,-179.04 477,-164 488.38,-145.21 538.23,-170.74 475,-62 467.33,-48.82 453.29,-39.58 440.21,-33.41"/>
<polygon fill="black" stroke="black" points="441.54,-30.17 430.97,-29.46 438.78,-36.61 441.54,-30.17"/>
<text text-anchor="middle" x="509.5" y="-109.3" font-family="Times,serif" font-size="14.00">&lt;</text>
</g>
<!-- 3&#45;&gt;0 -->
<g id="edge18" class="edge">
<title>3&#45;&gt;0</title>
<path fill="none" stroke="black" d="M436.15,-194.79C456.56,-190.29 484.48,-181.32 503,-164 514.77,-152.99 514.59,-146.75 518,-131 524.94,-98.97 517.61,-82.45 492,-62 476.59,-49.7 456.67,-40.11 440.33,-33.52"/>
<polygon fill="black" stroke="black" points="441.27,-30.13 430.68,-29.81 438.75,-36.67 441.27,-30.13"/>
<text text-anchor="middle" x="526.5" y="-109.3" font-family="Times,serif" font-size="14.00">%</text>
</g>
<!-- 3&#45;&gt;0 -->
<g id="edge19" class="edge">
<title>3&#45;&gt;0</title>
<path fill="none" stroke="black" d="M437.01,-196.78C461.8,-193.43 498.18,-185.04 522,-164 534.07,-153.33 533.59,-146.75 537,-131 543.87,-99.27 538.81,-81.7 513,-62 491.74,-45.77 462.97,-35.64 441.24,-29.78"/>
<polygon fill="black" stroke="black" points="442.06,-26.38 431.5,-27.31 440.34,-33.16 442.06,-26.38"/>
<text text-anchor="middle" x="541" y="-109.3" font-family="Times,serif" font-size="14.00">:</text>
</g>
<!-- 2 -->
<g id="node4" class="node">
<title>2</title>
<ellipse fill="none" stroke="black" cx="740" cy="-113" rx="27" ry="18"/>
<text text-anchor="middle" x="740" y="-109.3" font-family="Times,serif" font-size="14.00">2</text>
</g>
<!-- 3&#45;&gt;2 -->
<g id="edge16" class="edge">
<title>3&#45;&gt;2</title>
<path fill="none" stroke="black" d="M436.92,-198.58C500.9,-197.13 660.08,-190.87 705,-164 714.55,-158.29 722.15,-148.85 727.8,-139.7"/>
<polygon fill="black" stroke="black" points="730.95,-141.24 732.8,-130.8 724.85,-137.81 730.95,-141.24"/>
<text text-anchor="middle" x="726" y="-152.8" font-family="Times,serif" font-size="14.00">&amp;</text>
</g>
<!-- 4 -->
<g id="node5" class="node">
<title>4</title>
<ellipse fill="none" stroke="black" cx="812" cy="-113" rx="27" ry="18"/>
<text text-anchor="middle" x="812" y="-109.3" font-family="Times,serif" font-size="14.00">4</text>
</g>
<!-- 3&#45;&gt;4 -->
<g id="edge17" class="edge">
<title>3&#45;&gt;4</title>
<path fill="none" stroke="black" d="M437.12,-197.73C505.07,-194.29 681.08,-183.7 736,-164 754.84,-157.24 773.64,-144.93 787.84,-134.21"/>
<polygon fill="black" stroke="black" points="790.31,-136.72 796.04,-127.81 786,-131.2 790.31,-136.72"/>
<text text-anchor="middle" x="766.5" y="-152.8" font-family="Times,serif" font-size="14.00">!</text>
</g>
<!-- 2&#45;&gt;0 -->
<g id="edge20" class="edge">
<title>2&#45;&gt;0</title>
<path fill="none" stroke="black" d="M732.76,-95.25C726.96,-83.93 717.68,-69.7 705,-62 661.39,-35.52 509.48,-26.68 442.34,-24.03"/>
<polygon fill="black" stroke="black" points="442.07,-20.52 431.95,-23.64 441.81,-27.51 442.07,-20.52"/>
<text text-anchor="middle" x="726" y="-65.8" font-family="Times,serif" font-size="14.00">&amp;</text>
</g>
<!-- 4&#45;&gt;0 -->
<g id="edge21" class="edge">
<title>4&#45;&gt;0</title>
<path fill="none" stroke="black" d="M796.01,-98.26C781.41,-86.54 758.7,-70.3 736,-62 682.41,-42.41 513.23,-29.61 442.05,-24.96"/>
<polygon fill="black" stroke="black" points="442.1,-21.45 431.89,-24.31 441.65,-28.44 442.1,-21.45"/>
<text text-anchor="middle" x="768.5" y="-65.8" font-family="Times,serif" font-size="14.00">=</text>
</g>
</g>
</svg>
