<?xml version="1.0" encoding="UTF-8" standalone="no"?>
<!DOCTYPE svg PUBLIC "-//W3C//DTD SVG 1.1//EN"
 "http://www.w3.org/Graphics/SVG/1.1/DTD/svg11.dtd">
<!-- Generated by graphviz version 6.0.2 (20221011.1828)
 -->
<!-- Pages: 1 -->
<svg width="449pt" height="139pt"
 viewBox="0.00 0.00 449.06 139.00" xmlns="http://www.w3.org/2000/svg" xmlns:xlink="http://www.w3.org/1999/xlink">
<g id="graph0" class="graph" transform="scale(1 1) rotate(0) translate(4 135)">
<polygon fill="white" stroke="none" points="-4,4 -4,-135 445.06,-135 445.06,4 -4,4"/>
<!-- 1 -->
<g id="node1" class="node">
<title>1</title>
<ellipse fill="none" stroke="black" cx="107.06" cy="-22" rx="18" ry="18"/>
<ellipse fill="none" stroke="black" cx="107.06" cy="-22" rx="22" ry="22"/>
<text text-anchor="middle" x="107.06" y="-18.3" font-family="Times,serif" font-size="14.00">1</text>
</g>
<!-- 1&#45;&gt;1 -->
<g id="edge1" class="edge">
<title>1&#45;&gt;1</title>
<path fill="none" stroke="black" d="M129.27,-23.48C138.85,-23.6 147.06,-23.11 147.06,-22 147.06,-21.32 144.01,-20.88 139.46,-20.66"/>
<polygon fill="black" stroke="black" points="139.32,-17.16 129.27,-20.52 139.22,-24.15 139.32,-17.16"/>
<text text-anchor="middle" x="150.56" y="-18.3" font-family="Times,serif" font-size="14.00">3</text>
</g>
<!-- 1&#45;&gt;1 -->
<g id="edge2" class="edge">
<title>1&#45;&gt;1</title>
<path fill="none" stroke="black" d="M129.08,-24.58C146.78,-25.61 165.06,-24.75 165.06,-22 165.06,-19.79 153.22,-18.8 139.37,-19.03"/>
<polygon fill="black" stroke="black" points="138.94,-15.55 129.08,-19.42 139.2,-22.54 138.94,-15.55"/>
<text text-anchor="middle" x="168.56" y="-18.3" font-family="Times,serif" font-size="14.00">9</text>
</g>
<!-- 1&#45;&gt;1 -->
<g id="edge3" class="edge">
<title>1&#45;&gt;1</title>
<path fill="none" stroke="black" d="M128.84,-25.3C153.96,-27.65 183.06,-26.55 183.06,-22 183.06,-18.06 161.18,-16.71 138.98,-17.94"/>
<polygon fill="black" stroke="black" points="138.55,-14.47 128.84,-18.7 139.07,-21.45 138.55,-14.47"/>
<text text-anchor="middle" x="186.56" y="-18.3" font-family="Times,serif" font-size="14.00">7</text>
</g>
<!-- 1&#45;&gt;1 -->
<g id="edge4" class="edge">
<title>1&#45;&gt;1</title>
<path fill="none" stroke="black" d="M128.77,-25.83C160.87,-29.68 201.06,-28.41 201.06,-22 201.06,-16.24 168.62,-14.63 138.75,-17.16"/>
<polygon fill="black" stroke="black" points="138.37,-13.68 128.77,-18.17 139.07,-20.64 138.37,-13.68"/>
<text text-anchor="middle" x="204.56" y="-18.3" font-family="Times,serif" font-size="14.00">5</text>
</g>
<!-- 1&#45;&gt;1 -->
<g id="edge5" class="edge">
<title>1&#45;&gt;1</title>
<path fill="none" stroke="black" d="M128.77,-26.23C167.61,-31.71 219.06,-30.3 219.06,-22 219.06,-14.41 176.07,-12.58 139.02,-16.51"/>
<polygon fill="black" stroke="black" points="138.27,-13.07 128.77,-17.77 139.12,-20.02 138.27,-13.07"/>
<text text-anchor="middle" x="222.56" y="-18.3" font-family="Times,serif" font-size="14.00">0</text>
</g>
<!-- 1&#45;&gt;1 -->
<g id="edge6" class="edge">
<title>1&#45;&gt;1</title>
<path fill="none" stroke="black" d="M128.79,-26.55C174.21,-33.74 237.06,-32.22 237.06,-22 237.06,-12.52 182.96,-10.53 138.88,-16.03"/>
<polygon fill="black" stroke="black" points="138.21,-12.59 128.79,-17.45 139.18,-19.52 138.21,-12.59"/>
<text text-anchor="middle" x="240.56" y="-18.3" font-family="Times,serif" font-size="14.00">2</text>
</g>
<!-- 1&#45;&gt;1 -->
<g id="edge7" class="edge">
<title>1&#45;&gt;1</title>
<path fill="none" stroke="black" d="M128.63,-26.78C180.52,-35.76 255.06,-34.17 255.06,-22 255.06,-10.59 189.55,-8.48 138.6,-15.66"/>
<polygon fill="black" stroke="black" points="137.97,-12.22 128.63,-17.22 139.05,-19.13 137.97,-12.22"/>
<text text-anchor="middle" x="258.56" y="-18.3" font-family="Times,serif" font-size="14.00">4</text>
</g>
<!-- 1&#45;&gt;1 -->
<g id="edge8" class="edge">
<title>1&#45;&gt;1</title>
<path fill="none" stroke="black" d="M128.52,-26.97C186.81,-37.78 273.06,-36.12 273.06,-22 273.06,-8.68 196.3,-6.45 138.67,-15.32"/>
<polygon fill="black" stroke="black" points="137.8,-11.92 128.52,-17.03 138.97,-18.82 137.8,-11.92"/>
<text text-anchor="middle" x="276.56" y="-18.3" font-family="Times,serif" font-size="14.00">1</text>
</g>
<!-- 1&#45;&gt;1 -->
<g id="edge9" class="edge">
<title>1&#45;&gt;1</title>
<path fill="none" stroke="black" d="M128.72,-27.18C193.33,-39.79 291.06,-38.07 291.06,-22 291.06,-6.75 203,-4.42 138.8,-15.01"/>
<polygon fill="black" stroke="black" points="137.94,-11.61 128.72,-16.82 139.18,-18.5 137.94,-11.61"/>
<text text-anchor="middle" x="294.56" y="-18.3" font-family="Times,serif" font-size="14.00">6</text>
</g>
<!-- 1&#45;&gt;1 -->
<g id="edge10" class="edge">
<title>1&#45;&gt;1</title>
<path fill="none" stroke="black" d="M128.52,-27.29C199.41,-41.81 309.06,-40.05 309.06,-22 309.06,-4.8 209.45,-2.39 138.73,-14.78"/>
<polygon fill="black" stroke="black" points="137.69,-11.41 128.52,-16.71 139,-18.29 137.69,-11.41"/>
<text text-anchor="middle" x="312.56" y="-18.3" font-family="Times,serif" font-size="14.00">8</text>
</g>
<!-- 0 -->
<g id="node2" class="node">
<title>0</title>
<ellipse fill="none" stroke="red" cx="137.06" cy="-113" rx="27" ry="18"/>
<text text-anchor="middle" x="137.06" y="-109.3" font-family="Times,serif" font-size="14.00">0</text>
</g>
<!-- 0&#45;&gt;1 -->
<g id="edge11" class="edge">
<title>0&#45;&gt;1</title>
<path fill="none" stroke="black" d="M110.76,-108.81C76.06,-104 17.85,-93.63 5.06,-77 -16.11,-49.49 38.07,-34.49 75.32,-27.66"/>
<polygon fill="black" stroke="black" points="76.03,-31.09 85.3,-25.95 74.85,-24.19 76.03,-31.09"/>
<text text-anchor="middle" x="8.56" y="-65.8" font-family="Times,serif" font-size="14.00">3</text>
</g>
<!-- 0&#45;&gt;1 -->
<g id="edge12" class="edge">
<title>0&#45;&gt;1</title>
<path fill="none" stroke="black" d="M109.83,-110.98C85.76,-108.47 51.92,-100.62 35.06,-77 20.87,-57.13 50.83,-41.4 76.32,-32.16"/>
<polygon fill="black" stroke="black" points="77.79,-35.36 86.13,-28.82 75.53,-28.73 77.79,-35.36"/>
<text text-anchor="middle" x="38.56" y="-65.8" font-family="Times,serif" font-size="14.00">9</text>
</g>
<!-- 0&#45;&gt;1 -->
<g id="edge13" class="edge">
<title>0&#45;&gt;1</title>
<path fill="none" stroke="black" d="M111.4,-106.81C95.07,-102.03 75.16,-93.14 65.06,-77 56.99,-64.12 67.49,-50.62 80,-40.34"/>
<polygon fill="black" stroke="black" points="82.44,-42.89 88.34,-34.09 78.24,-37.29 82.44,-42.89"/>
<text text-anchor="middle" x="68.56" y="-65.8" font-family="Times,serif" font-size="14.00">7</text>
</g>
<!-- 0&#45;&gt;1 -->
<g id="edge14" class="edge">
<title>0&#45;&gt;1</title>
<path fill="none" stroke="black" d="M116.86,-100.69C108.48,-94.81 99.65,-86.8 95.06,-77 91.31,-69 91.8,-59.77 93.98,-51.24"/>
<polygon fill="black" stroke="black" points="97.33,-52.24 97.15,-41.65 90.69,-50.05 97.33,-52.24"/>
<text text-anchor="middle" x="98.56" y="-65.8" font-family="Times,serif" font-size="14.00">5</text>
</g>
<!-- 0&#45;&gt;1 -->
<g id="edge16" class="edge">
<title>0&#45;&gt;1</title>
<path fill="none" stroke="black" d="M131.29,-95.28C129.3,-89.49 127.07,-82.96 125.06,-77 122.39,-69.1 119.52,-60.54 116.88,-52.62"/>
<polygon fill="black" stroke="black" points="120.16,-51.4 113.68,-43.02 113.52,-53.61 120.16,-51.4"/>
<text text-anchor="middle" x="128.56" y="-65.8" font-family="Times,serif" font-size="14.00">2</text>
</g>
<!-- 0&#45;&gt;1 -->
<g id="edge17" class="edge">
<title>0&#45;&gt;1</title>
<path fill="none" stroke="black" d="M136.33,-94.94C135.51,-85.09 133.76,-72.59 130.06,-62 128.56,-57.71 126.56,-53.37 124.37,-49.22"/>
<polygon fill="black" stroke="black" points="127.4,-47.46 119.38,-40.53 121.33,-50.94 127.4,-47.46"/>
<text text-anchor="middle" x="137.56" y="-65.8" font-family="Times,serif" font-size="14.00">4</text>
</g>
<!-- 0&#45;&gt;1 -->
<g id="edge18" class="edge">
<title>0&#45;&gt;1</title>
<path fill="none" stroke="black" d="M144.09,-95.28C147.23,-85.31 149.36,-72.59 145.06,-62 142.17,-54.9 137.29,-48.38 131.98,-42.79"/>
<polygon fill="black" stroke="black" points="134.27,-40.13 124.62,-35.77 129.44,-45.2 134.27,-40.13"/>
<text text-anchor="middle" x="151.56" y="-65.8" font-family="Times,serif" font-size="14.00">1</text>
</g>
<!-- 0&#45;&gt;1 -->
<g id="edge19" class="edge">
<title>0&#45;&gt;1</title>
<path fill="none" stroke="black" d="M150.5,-97.38C158.06,-87.32 164.91,-73.71 159.06,-62 153.97,-51.83 144.83,-43.62 135.61,-37.41"/>
<polygon fill="black" stroke="black" points="137.24,-34.3 126.89,-32.06 133.59,-40.27 137.24,-34.3"/>
<text text-anchor="middle" x="164.56" y="-65.8" font-family="Times,serif" font-size="14.00">6</text>
</g>
<!-- 0&#45;&gt;1 -->
<g id="edge20" class="edge">
<title>0&#45;&gt;1</title>
<path fill="none" stroke="black" d="M155.61,-99.29C167.56,-89.44 179.57,-75.28 172.06,-62 164.54,-48.73 150.51,-39.48 137.41,-33.34"/>
<polygon fill="black" stroke="black" points="138.71,-30.08 128.13,-29.39 135.97,-36.53 138.71,-30.08"/>
<text text-anchor="middle" x="177.56" y="-65.8" font-family="Times,serif" font-size="14.00">8</text>
</g>
<!-- 2 -->
<g id="node3" class="node">
<title>2</title>
<ellipse fill="none" stroke="black" cx="419.06" cy="-22" rx="18" ry="18"/>
<ellipse fill="none" stroke="black" cx="419.06" cy="-22" rx="22" ry="22"/>
<text text-anchor="middle" x="419.06" y="-18.3" font-family="Times,serif" font-size="14.00">2</text>
</g>
<!-- 0&#45;&gt;2 -->
<g id="edge15" class="edge">
<title>0&#45;&gt;2</title>
<path fill="none" stroke="black" d="M162.96,-107.9C209.59,-99.9 310.09,-79.76 388.06,-44 389.83,-43.19 391.61,-42.28 393.38,-41.3"/>
<polygon fill="black" stroke="black" points="395.25,-44.26 401.95,-36.06 391.59,-38.29 395.25,-44.26"/>
<text text-anchor="middle" x="344.56" y="-65.8" font-family="Times,serif" font-size="14.00">0</text>
</g>
</g>
</svg>
