<?xml version="1.0" encoding="UTF-8" standalone="no"?>
<!DOCTYPE svg PUBLIC "-//W3C//DTD SVG 1.1//EN"
 "http://www.w3.org/Graphics/SVG/1.1/DTD/svg11.dtd">
<!-- Generated by graphviz version 6.0.2 (20221011.1828)
 -->
<!-- Pages: 1 -->
<svg width="785pt" height="234pt"
 viewBox="0.00 0.00 785.39 234.00" xmlns="http://www.w3.org/2000/svg" xmlns:xlink="http://www.w3.org/1999/xlink">
<g id="graph0" class="graph" transform="scale(1 1) rotate(0) translate(4 230)">
<polygon fill="white" stroke="none" points="-4,4 -4,-230 781.39,-230 781.39,4 -4,4"/>
<!-- 2 -->
<g id="node1" class="node">
<title>2</title>
<ellipse fill="none" stroke="black" cx="33.39" cy="-117" rx="18" ry="18"/>
<ellipse fill="none" stroke="black" cx="33.39" cy="-117" rx="22" ry="22"/>
<text text-anchor="middle" x="33.39" y="-113.3" font-family="Times,serif" font-size="14.00">2</text>
</g>
<!-- 3 -->
<g id="node2" class="node">
<title>3</title>
<ellipse fill="none" stroke="black" cx="364.39" cy="-22" rx="18" ry="18"/>
<ellipse fill="none" stroke="black" cx="364.39" cy="-22" rx="22" ry="22"/>
<text text-anchor="middle" x="364.39" y="-18.3" font-family="Times,serif" font-size="14.00">3</text>
</g>
<!-- 2&#45;&gt;3 -->
<g id="edge1" class="edge">
<title>2&#45;&gt;3</title>
<path fill="none" stroke="black" d="M41.04,-96.34C46.74,-84.42 55.74,-69.99 68.39,-62 111.76,-34.61 264.98,-26.26 332.29,-23.88"/>
<polygon fill="black" stroke="black" points="332.44,-27.38 342.32,-23.55 332.21,-20.38 332.44,-27.38"/>
<text text-anchor="middle" x="72.89" y="-65.8" font-family="Times,serif" font-size="14.00">=</text>
</g>
<!-- 1 -->
<g id="node3" class="node">
<title>1</title>
<ellipse fill="none" stroke="black" cx="606.39" cy="-117" rx="27" ry="18"/>
<text text-anchor="middle" x="606.39" y="-113.3" font-family="Times,serif" font-size="14.00">1</text>
</g>
<!-- 1&#45;&gt;3 -->
<g id="edge2" class="edge">
<title>1&#45;&gt;3</title>
<path fill="none" stroke="black" d="M599.95,-99.44C594.29,-87.15 584.85,-71.03 571.39,-62 543.25,-43.12 447.38,-31.14 396.58,-25.96"/>
<polygon fill="black" stroke="black" points="396.77,-22.46 386.47,-24.96 396.08,-29.43 396.77,-22.46"/>
<text text-anchor="middle" x="587.39" y="-65.8" font-family="Times,serif" font-size="14.00">|</text>
</g>
<!-- 4 -->
<g id="node4" class="node">
<title>4</title>
<ellipse fill="none" stroke="black" cx="678.39" cy="-117" rx="27" ry="18"/>
<text text-anchor="middle" x="678.39" y="-113.3" font-family="Times,serif" font-size="14.00">4</text>
</g>
<!-- 4&#45;&gt;3 -->
<g id="edge3" class="edge">
<title>4&#45;&gt;3</title>
<path fill="none" stroke="black" d="M661.9,-102.68C645.51,-90.16 619.17,-71.92 593.39,-62 526.49,-36.26 442.09,-27.46 396.75,-24.49"/>
<polygon fill="black" stroke="black" points="396.82,-20.99 386.62,-23.88 396.4,-27.97 396.82,-20.99"/>
<text text-anchor="middle" x="626.89" y="-65.8" font-family="Times,serif" font-size="14.00">=</text>
</g>
<!-- 5 -->
<g id="node5" class="node">
<title>5</title>
<ellipse fill="none" stroke="black" cx="750.39" cy="-117" rx="27" ry="18"/>
<text text-anchor="middle" x="750.39" y="-113.3" font-family="Times,serif" font-size="14.00">5</text>
</g>
<!-- 5&#45;&gt;3 -->
<g id="edge4" class="edge">
<title>5&#45;&gt;3</title>
<path fill="none" stroke="black" d="M731.22,-104.19C725.85,-101.05 719.96,-97.77 714.39,-95 680.33,-78.04 672.07,-72.12 635.39,-62 551.12,-38.74 448.06,-28.77 396.71,-25"/>
<polygon fill="black" stroke="black" points="396.78,-21.5 386.56,-24.29 396.29,-28.48 396.78,-21.5"/>
<text text-anchor="middle" x="682.39" y="-65.8" font-family="Times,serif" font-size="14.00">&amp;</text>
</g>
<!-- 0 -->
<g id="node6" class="node">
<title>0</title>
<ellipse fill="none" stroke="red" cx="322.39" cy="-208" rx="27" ry="18"/>
<text text-anchor="middle" x="322.39" y="-204.3" font-family="Times,serif" font-size="14.00">0</text>
</g>
<!-- 0&#45;&gt;2 -->
<g id="edge10" class="edge">
<title>0&#45;&gt;2</title>
<path fill="none" stroke="black" d="M295.34,-206.05C222.03,-203.2 23.69,-193.54 4.39,-172 -4.09,-162.53 1.67,-150.13 10.22,-139.6"/>
<polygon fill="black" stroke="black" points="12.99,-141.75 17.12,-131.99 7.81,-137.05 12.99,-141.75"/>
<text text-anchor="middle" x="8.89" y="-160.8" font-family="Times,serif" font-size="14.00">&lt;</text>
</g>
<!-- 0&#45;&gt;2 -->
<g id="edge15" class="edge">
<title>0&#45;&gt;2</title>
<path fill="none" stroke="black" d="M295.45,-205.64C227.61,-201.96 53.95,-190.76 36.39,-172 30.6,-165.81 28.52,-157.27 28.26,-148.81"/>
<polygon fill="black" stroke="black" points="31.76,-148.83 28.7,-138.68 24.76,-148.52 31.76,-148.83"/>
<text text-anchor="middle" x="40.89" y="-160.8" font-family="Times,serif" font-size="14.00">=</text>
</g>
<!-- 0&#45;&gt;2 -->
<g id="edge16" class="edge">
<title>0&#45;&gt;2</title>
<path fill="none" stroke="black" d="M295.35,-206.08C237.85,-203.69 105.68,-195.7 68.39,-172 58.82,-165.91 51.33,-156.16 45.79,-146.6"/>
<polygon fill="black" stroke="black" points="48.82,-144.84 41.06,-137.63 42.62,-148.11 48.82,-144.84"/>
<text text-anchor="middle" x="72.89" y="-160.8" font-family="Times,serif" font-size="14.00">&gt;</text>
</g>
<!-- 0&#45;&gt;3 -->
<g id="edge5" class="edge">
<title>0&#45;&gt;3</title>
<path fill="none" stroke="black" d="M295.52,-205.42C247.02,-202.09 147.36,-192.84 120.39,-172 92.8,-150.68 98.01,-129.08 105.39,-95 108.8,-79.25 107.58,-71.77 120.39,-62 153.07,-37.09 273.49,-27.62 332.02,-24.43"/>
<polygon fill="black" stroke="black" points="332.39,-27.92 342.2,-23.91 332.03,-20.93 332.39,-27.92"/>
<text text-anchor="middle" x="108.89" y="-113.3" font-family="Times,serif" font-size="14.00">}</text>
</g>
<!-- 0&#45;&gt;3 -->
<g id="edge7" class="edge">
<title>0&#45;&gt;3</title>
<path fill="none" stroke="black" d="M295.35,-207.65C261.56,-207.09 203.53,-201.43 165.39,-172 137.65,-150.59 140.14,-129.06 148.39,-95 152.28,-78.97 152.2,-71.91 165.39,-62 191.29,-42.55 282.76,-30.91 332.17,-25.9"/>
<polygon fill="black" stroke="black" points="332.71,-29.37 342.32,-24.91 332.03,-22.4 332.71,-29.37"/>
<text text-anchor="middle" x="152.89" y="-113.3" font-family="Times,serif" font-size="14.00">+</text>
</g>
<!-- 0&#45;&gt;3 -->
<g id="edge9" class="edge">
<title>0&#45;&gt;3</title>
<path fill="none" stroke="black" d="M295.65,-205.49C269.79,-202.67 231,-194.66 206.39,-172 180.86,-148.49 186.92,-129.1 193.39,-95 196.33,-79.51 194.53,-72.38 206.39,-62 241.56,-31.23 297.24,-23.94 332.24,-22.63"/>
<polygon fill="black" stroke="black" points="332.48,-26.13 342.4,-22.4 332.32,-19.13 332.48,-26.13"/>
<text text-anchor="middle" x="195.89" y="-113.3" font-family="Times,serif" font-size="14.00">)</text>
</g>
<!-- 0&#45;&gt;3 -->
<g id="edge11" class="edge">
<title>0&#45;&gt;3</title>
<path fill="none" stroke="black" d="M297.49,-200.95C280.99,-195.77 259.97,-186.75 246.39,-172 222.94,-146.52 228.38,-129.11 234.39,-95 237.1,-79.63 235.2,-72.87 246.39,-62 269.52,-39.54 305.85,-30.02 332.09,-25.97"/>
<polygon fill="black" stroke="black" points="332.86,-29.4 342.3,-24.6 331.92,-22.47 332.86,-29.4"/>
<text text-anchor="middle" x="236.39" y="-113.3" font-family="Times,serif" font-size="14.00">:</text>
</g>
<!-- 0&#45;&gt;3 -->
<g id="edge12" class="edge">
<title>0&#45;&gt;3</title>
<path fill="none" stroke="black" d="M306.28,-193.55C299.77,-187.48 292.58,-179.91 287.39,-172 268.36,-142.98 267.92,-129.1 274.39,-95 277.33,-79.51 276.78,-73.66 287.39,-62 299.81,-48.37 318.08,-38.83 333.7,-32.6"/>
<polygon fill="black" stroke="black" points="335.34,-35.73 343.51,-28.97 332.91,-29.16 335.34,-35.73"/>
<text text-anchor="middle" x="276.89" y="-113.3" font-family="Times,serif" font-size="14.00">&#45;</text>
</g>
<!-- 0&#45;&gt;3 -->
<g id="edge13" class="edge">
<title>0&#45;&gt;3</title>
<path fill="none" stroke="black" d="M318.49,-190.09C314.03,-167.97 308.22,-128.13 315.39,-95 319.42,-76.4 331.34,-58.68 342.41,-45.48"/>
<polygon fill="black" stroke="black" points="345.12,-47.69 349.11,-37.87 339.87,-43.06 345.12,-47.69"/>
<text text-anchor="middle" x="318.89" y="-113.3" font-family="Times,serif" font-size="14.00">*</text>
</g>
<!-- 0&#45;&gt;3 -->
<g id="edge14" class="edge">
<title>0&#45;&gt;3</title>
<path fill="none" stroke="black" d="M326.27,-190.02C333.37,-158.9 348.56,-92.36 357.47,-53.31"/>
<polygon fill="black" stroke="black" points="360.89,-54.08 359.7,-43.55 354.06,-52.52 360.89,-54.08"/>
<text text-anchor="middle" x="350.89" y="-113.3" font-family="Times,serif" font-size="14.00">(</text>
</g>
<!-- 0&#45;&gt;3 -->
<g id="edge17" class="edge">
<title>0&#45;&gt;3</title>
<path fill="none" stroke="black" d="M334.37,-191.55C338.56,-185.65 343.05,-178.73 346.39,-172 368.59,-127.36 370.94,-111.79 368.39,-62 368.26,-59.44 368.08,-56.79 367.87,-54.14"/>
<polygon fill="black" stroke="black" points="371.34,-53.66 366.95,-44.02 364.37,-54.3 371.34,-53.66"/>
<text text-anchor="middle" x="374.89" y="-113.3" font-family="Times,serif" font-size="14.00">%</text>
</g>
<!-- 0&#45;&gt;3 -->
<g id="edge19" class="edge">
<title>0&#45;&gt;3</title>
<path fill="none" stroke="black" d="M340.82,-194.78C356.79,-182.83 378.42,-162.95 385.39,-139 394.97,-106.12 391.25,-95.08 382.39,-62 381.41,-58.33 380.1,-54.57 378.64,-50.91"/>
<polygon fill="black" stroke="black" points="381.76,-49.3 374.53,-41.56 375.35,-52.12 381.76,-49.3"/>
<text text-anchor="middle" x="392.39" y="-113.3" font-family="Times,serif" font-size="14.00">/</text>
</g>
<!-- 0&#45;&gt;3 -->
<g id="edge20" class="edge">
<title>0&#45;&gt;3</title>
<path fill="none" stroke="black" d="M345.67,-198.67C358.84,-192.93 374.76,-184.14 385.39,-172 395.78,-160.14 395.45,-154.49 398.39,-139 404.78,-105.38 409.65,-93.95 397.39,-62 395.06,-55.91 391.34,-50.11 387.23,-44.92"/>
<polygon fill="black" stroke="black" points="389.81,-42.55 380.59,-37.33 384.55,-47.16 389.81,-42.55"/>
<text text-anchor="middle" x="407.89" y="-113.3" font-family="Times,serif" font-size="14.00">{</text>
</g>
<!-- 0&#45;&gt;3 -->
<g id="edge21" class="edge">
<title>0&#45;&gt;3</title>
<path fill="none" stroke="black" d="M347.78,-201.67C365.51,-196.74 388.58,-187.72 403.39,-172 414.1,-160.64 412.69,-154.37 415.39,-139 421.33,-105.29 429.19,-92.37 413.39,-62 408.55,-52.69 400.4,-44.86 392.12,-38.72"/>
<polygon fill="black" stroke="black" points="393.82,-35.64 383.58,-32.93 389.9,-41.44 393.82,-35.64"/>
<text text-anchor="middle" x="424.39" y="-113.3" font-family="Times,serif" font-size="14.00">;</text>
</g>
<!-- 0&#45;&gt;3 -->
<g id="edge22" class="edge">
<title>0&#45;&gt;3</title>
<path fill="none" stroke="black" d="M349.24,-204.34C371.58,-200.72 402.66,-192.17 421.39,-172 431.74,-160.86 428.38,-154.07 430.39,-139 434.94,-105.08 447.35,-91.72 430.39,-62 422.7,-48.51 408.31,-39.22 394.92,-33.1"/>
<polygon fill="black" stroke="black" points="396.04,-29.77 385.46,-29.18 393.37,-36.24 396.04,-29.77"/>
<text text-anchor="middle" x="440.39" y="-113.3" font-family="Times,serif" font-size="14.00">,</text>
</g>
<!-- 0&#45;&gt;1 -->
<g id="edge6" class="edge">
<title>0&#45;&gt;1</title>
<path fill="none" stroke="black" d="M349.33,-206C405.93,-203.47 534.95,-195.24 571.39,-172 581.85,-165.33 589.82,-154.29 595.49,-143.93"/>
<polygon fill="black" stroke="black" points="598.74,-145.25 600.06,-134.74 592.47,-142.13 598.74,-145.25"/>
<text text-anchor="middle" x="588.39" y="-160.8" font-family="Times,serif" font-size="14.00">|</text>
</g>
<!-- 0&#45;&gt;4 -->
<g id="edge8" class="edge">
<title>0&#45;&gt;4</title>
<path fill="none" stroke="black" d="M349.57,-207.4C399.6,-207.3 508.96,-203.15 594.39,-172 616.11,-164.08 637.98,-149.77 653.97,-137.86"/>
<polygon fill="black" stroke="black" points="656.39,-140.42 662.2,-131.56 652.14,-134.86 656.39,-140.42"/>
<text text-anchor="middle" x="625.89" y="-160.8" font-family="Times,serif" font-size="14.00">!</text>
</g>
<!-- 0&#45;&gt;5 -->
<g id="edge18" class="edge">
<title>0&#45;&gt;5</title>
<path fill="none" stroke="black" d="M349.37,-206.39C403.73,-204.64 530,-197.88 632.39,-172 670.48,-162.38 679.11,-156.28 714.39,-139 717.01,-137.72 719.7,-136.32 722.37,-134.87"/>
<polygon fill="black" stroke="black" points="724.26,-137.82 731.25,-129.86 720.82,-131.73 724.26,-137.82"/>
<text text-anchor="middle" x="682.39" y="-160.8" font-family="Times,serif" font-size="14.00">&amp;</text>
</g>
</g>
</svg>
